<?xml version="1.0" encoding="UTF-8" standalone="no"?>
<svg
   xmlns:dc="http://purl.org/dc/elements/1.1/"
   xmlns:cc="http://creativecommons.org/ns#"
   xmlns:rdf="http://www.w3.org/1999/02/22-rdf-syntax-ns#"
   xmlns:svg="http://www.w3.org/2000/svg"
   xmlns="http://www.w3.org/2000/svg"
   xmlns:xlink="http://www.w3.org/1999/xlink"
   xmlns:sodipodi="http://sodipodi.sourceforge.net/DTD/sodipodi-0.dtd"
   xmlns:inkscape="http://www.inkscape.org/namespaces/inkscape"
   width="50"
   height="50"
   viewBox="0 0 13.229167 13.229167"
   version="1.1"
   id="svg8"
   inkscape:version="1.0.2 (1.0.2+r75+1)"
   sodipodi:docname="broeknCloudIcon.svg">
  <defs
     id="defs2">
    <linearGradient
       inkscape:collect="always"
       id="linearGradient839">
      <stop
         style="stop-color:#c3811e;stop-opacity:1"
         offset="0"
         id="stop835" />
      <stop
         style="stop-color:#e99623;stop-opacity:1"
         offset="1"
         id="stop837" />
    </linearGradient>
    <linearGradient
       inkscape:collect="always"
       xlink:href="#linearGradient839"
       id="linearGradient841"
       x1="4.6651788"
       y1="7.8702421"
       x2="4.5926423"
       y2="-3.4895744"
       gradientUnits="userSpaceOnUse"
       gradientTransform="matrix(1.4285714,0,0,1.4285714,-17.185232,-2.6217465)" />
  </defs>
  <sodipodi:namedview
     id="base"
     pagecolor="#ffffff"
     bordercolor="#666666"
     borderopacity="1.0"
     inkscape:pageopacity="0.0"
     inkscape:pageshadow="2"
     inkscape:zoom="5.45"
     inkscape:cx="18.015399"
     inkscape:cy="34.734493"
     inkscape:document-units="mm"
     inkscape:current-layer="layer1"
     inkscape:document-rotation="0"
     showgrid="false"
     units="px"
     inkscape:window-width="1278"
     inkscape:window-height="950"
     inkscape:window-x="74"
     inkscape:window-y="77"
     inkscape:window-maximized="0"
     inkscape:snap-global="false" />
  <metadata
     id="metadata5">
    <rdf:RDF>
      <cc:Work
         rdf:about="">
        <dc:format>image/svg+xml</dc:format>
        <dc:type
           rdf:resource="http://purl.org/dc/dcmitype/StillImage" />
        <dc:title></dc:title>
      </cc:Work>
    </rdf:RDF>
  </metadata>
  <g
     inkscape:label="Layer 1"
     inkscape:groupmode="layer"
     id="layer1">
    <circle
       style="fill:url(#linearGradient841);fill-opacity:1;stroke-width:0.264583"
       id="path833"
       cx="-10.570648"
       cy="3.9928372"
       r="6.6145835" />
    <path
       id="path1059-0"
       style="fill:#cccccc;fill-opacity:1;stroke-width:0.259352"
       d="M 9.418029,2.6100642 A 2.1118414,2.0291659 0 0 0 7.3065299,4.6389011 2.1118414,2.0291659 0 0 0 8.578287,6.5004062 2.1118414,2.0291659 0 0 0 8.568987,6.6910752 2.1118414,2.0291659 0 0 0 8.645985,7.235276 2.1118414,2.0291659 0 0 0 7.6951367,8.9304422 2.1118414,2.0291659 0 0 0 9.8071525,10.959279 2.1118414,2.0291659 0 0 0 11.918652,8.9304422 2.1118414,2.0291659 0 0 0 11.841138,8.3862412 2.1118414,2.0291659 0 0 0 12.792501,6.6910752 2.1118414,2.0291659 0 0 0 12.71602,6.1518395 2.1118414,2.0291659 0 0 0 13.229167,4.8255978 2.1118414,2.0291659 0 0 0 11.117151,2.7967609 2.1118414,2.0291659 0 0 0 10.487215,2.8891161 2.1118414,2.0291659 0 0 0 9.418029,2.6100642 Z" />
    <path
       id="path1059-0-9"
       style="fill:#9b9b9b;fill-opacity:1;stroke-width:0.264583"
       d="M 7.8420501,2.2696286 A 2.1118414,2.1118414 0 0 0 5.7305513,4.3816444 2.1118414,2.1118414 0 0 0 7.0023082,6.3189939 2.1118414,2.1118414 0 0 0 6.9930065,6.5174314 2.1118414,2.1118414 0 0 0 7.0705212,7.0832881 2.1118414,2.1118414 0 0 0 6.1191581,8.8475215 2.1118414,2.1118414 0 0 0 8.2311736,10.959538 2.1118414,2.1118414 0 0 0 10.342673,8.8475215 2.1118414,2.1118414 0 0 0 10.265675,8.2816646 2.1118414,2.1118414 0 0 0 11.21652,6.5174314 2.1118414,2.1118414 0 0 0 11.140039,5.9551918 2.1118414,2.1118414 0 0 0 11.653186,4.5759478 2.1118414,2.1118414 0 0 0 9.541171,2.463932 2.1118414,2.1118414 0 0 0 8.9112356,2.5605668 2.1118414,2.1118414 0 0 0 7.8420501,2.2696286 Z" />
    <ellipse
       style="fill:#9b9b9b;fill-opacity:1;stroke-width:0.245799"
       id="path1253"
       cx="6.1758261"
       cy="6.6145835"
       rx="2.2329576"
       ry="1.5293511" />
    <ellipse
       style="fill:#9b9b9b;fill-opacity:1;stroke-width:0.264583"
       id="path1255"
       cx="8.2878904"
       cy="6.6145835"
       rx="1.9655712"
       ry="1.2863172" />
    <path
       id="path1059-7"
       style="fill:#cccccc;fill-opacity:1;stroke-width:0.264583"
       d="M 7.185091,1.4683856 A 2.1118414,2.1118414 0 0 0 5.5882893,2.1980568 2.1118414,2.1118414 0 0 0 5.5350625,2.1970232 2.1118414,2.1118414 0 0 0 4.6255573,2.4026955 2.1118414,2.1118414 0 0 0 3.9186237,2.2807391 2.1118414,2.1118414 0 0 0 2.0236491,3.4610288 2.1118414,2.1118414 0 0 0 0,5.5704606 2.1118414,2.1118414 0 0 0 0.44286701,6.8639218 2.1118414,2.1118414 0 0 0 0.26716715,7.7072811 2.1118414,2.1118414 0 0 0 1.6758667,9.6978576 2.1118414,2.1118414 0 0 0 3.7873655,11.760781 2.1118414,2.1118414 0 0 0 5.5743367,10.773244 2.1118414,2.1118414 0 0 0 6.7468748,11.128778 2.1118414,2.1118414 0 0 0 8.8583739,9.0172787 2.1118414,2.1118414 0 0 0 8.7167805,8.2571184 2.1118414,2.1118414 0 0 0 10.170955,6.2505226 2.1118414,2.1118414 0 0 0 9.1203733,4.4253109 2.1118414,2.1118414 0 0 0 9.2971067,3.5804014 2.1118414,2.1118414 0 0 0 7.185091,1.4683856 Z" />
  </g>
</svg>
