<?xml version="1.0" encoding="UTF-8" standalone="no"?>
<svg
   xmlns:dc="http://purl.org/dc/elements/1.1/"
   xmlns:cc="http://creativecommons.org/ns#"
   xmlns:rdf="http://www.w3.org/1999/02/22-rdf-syntax-ns#"
   xmlns:svg="http://www.w3.org/2000/svg"
   xmlns="http://www.w3.org/2000/svg"
   xmlns:xlink="http://www.w3.org/1999/xlink"
   xmlns:sodipodi="http://sodipodi.sourceforge.net/DTD/sodipodi-0.dtd"
   xmlns:inkscape="http://www.inkscape.org/namespaces/inkscape"
   width="50"
   height="50"
   viewBox="0 0 13.229167 13.229167"
   version="1.1"
   id="svg8"
   inkscape:version="1.0.2 (1.0.2+r75+1)"
   sodipodi:docname="cloudIcon.svg">
  <defs
     id="defs2">
    <linearGradient
       inkscape:collect="always"
       id="linearGradient839">
      <stop
         style="stop-color:#c3811e;stop-opacity:1"
         offset="0"
         id="stop835" />
      <stop
         style="stop-color:#e99623;stop-opacity:1"
         offset="1"
         id="stop837" />
    </linearGradient>
    <linearGradient
       inkscape:collect="always"
       xlink:href="#linearGradient839"
       id="linearGradient841"
       x1="4.6651788"
       y1="7.8702421"
       x2="4.5926423"
       y2="-3.4895744"
       gradientUnits="userSpaceOnUse"
       gradientTransform="matrix(1.4285714,0,0,1.4285714,-17.185232,-2.6217465)" />
  </defs>
  <sodipodi:namedview
     id="base"
     pagecolor="#ffffff"
     bordercolor="#666666"
     borderopacity="1.0"
     inkscape:pageopacity="0.0"
     inkscape:pageshadow="2"
     inkscape:zoom="5.45"
     inkscape:cx="22.741845"
     inkscape:cy="34.734493"
     inkscape:document-units="mm"
     inkscape:current-layer="layer1"
     inkscape:document-rotation="0"
     showgrid="false"
     units="px"
     inkscape:window-width="1278"
     inkscape:window-height="950"
     inkscape:window-x="74"
     inkscape:window-y="77"
     inkscape:window-maximized="0"
     inkscape:snap-global="false" />
  <metadata
     id="metadata5">
    <rdf:RDF>
      <cc:Work
         rdf:about="">
        <dc:format>image/svg+xml</dc:format>
        <dc:type
           rdf:resource="http://purl.org/dc/dcmitype/StillImage" />
        <dc:title></dc:title>
      </cc:Work>
    </rdf:RDF>
  </metadata>
  <g
     inkscape:label="Layer 1"
     inkscape:groupmode="layer"
     id="layer1">
    <circle
       style="fill:url(#linearGradient841);fill-opacity:1;stroke-width:0.264583"
       id="path833"
       cx="-10.570648"
       cy="3.9928372"
       r="6.6145835" />
    <path
       id="path1059-0"
       style="fill:#cccccc;fill-opacity:1;stroke-width:0.259352"
       d="M 9.4180286,2.6100642 A 2.1118414,2.0291659 0 0 0 7.3065295,4.6389011 2.1118414,2.0291659 0 0 0 8.5782866,6.5004062 2.1118414,2.0291659 0 0 0 8.5689866,6.6910752 2.1118414,2.0291659 0 0 0 8.6459846,7.235276 2.1118414,2.0291659 0 0 0 7.6951363,8.9304422 2.1118414,2.0291659 0 0 0 9.8071521,10.959279 2.1118414,2.0291659 0 0 0 11.918652,8.9304422 2.1118414,2.0291659 0 0 0 11.841138,8.3862412 2.1118414,2.0291659 0 0 0 12.792501,6.6910752 2.1118414,2.0291659 0 0 0 12.71602,6.1518395 2.1118414,2.0291659 0 0 0 13.229167,4.8255978 2.1118414,2.0291659 0 0 0 11.117151,2.7967609 2.1118414,2.0291659 0 0 0 10.487215,2.8891161 2.1118414,2.0291659 0 0 0 9.4180286,2.6100642 Z" />
    <path
       id="path1059-0-9"
       style="fill:#9b9b9b;fill-opacity:1;stroke-width:0.264583"
       d="m 19.348175,-7.6337833 a 2.1118414,2.1118414 0 0 0 -2.111499,2.1120158 2.1118414,2.1118414 0 0 0 1.271757,1.9373495 2.1118414,2.1118414 0 0 0 -0.0093,0.1984375 2.1118414,2.1118414 0 0 0 0.07751,0.5658567 2.1118414,2.1118414 0 0 0 -0.951363,1.7642334 2.1118414,2.1118414 0 0 0 2.112016,2.1120165 2.1118414,2.1118414 0 0 0 2.111499,-2.1120165 2.1118414,2.1118414 0 0 0 -0.077,-0.5658569 2.1118414,2.1118414 0 0 0 0.950845,-1.7642332 2.1118414,2.1118414 0 0 0 -0.07648,-0.5622396 2.1118414,2.1118414 0 0 0 0.513147,-1.379244 2.1118414,2.1118414 0 0 0 -2.112015,-2.1120158 2.1118414,2.1118414 0 0 0 -0.629935,0.096635 2.1118414,2.1118414 0 0 0 -1.069186,-0.2909382 z" />
    <ellipse
       style="fill:#9b9b9b;fill-opacity:1;stroke-width:0.245799"
       id="path1253"
       cx="25.060667"
       cy="0.83735245"
       rx="2.2329576"
       ry="1.5293511" />
    <ellipse
       style="fill:#9b9b9b;fill-opacity:1;stroke-width:0.264583"
       id="path1255"
       cx="26.346786"
       cy="3.168035"
       rx="1.9655712"
       ry="1.2863172" />
    <path
       id="path1059-7"
       style="fill:#cccccc;fill-opacity:1;stroke-width:0.264583"
       d="M 7.1850912,1.3232145 A 2.1118414,2.1118414 0 0 0 5.5882895,2.0528857 2.1118414,2.1118414 0 0 0 5.5350625,2.0518557 2.1118414,2.1118414 0 0 0 4.6255573,2.257528 2.1118414,2.1118414 0 0 0 3.9186237,2.1355716 2.1118414,2.1118414 0 0 0 2.0236491,3.3158613 2.1118414,2.1118414 0 0 0 0,5.4252931 2.1118414,2.1118414 0 0 0 0.442867,6.7187543 2.1118414,2.1118414 0 0 0 0.2671672,7.5621136 2.1118414,2.1118414 0 0 0 1.6758667,9.5526901 2.1118414,2.1118414 0 0 0 3.7873655,11.615614 2.1118414,2.1118414 0 0 0 5.5743367,10.628077 2.1118414,2.1118414 0 0 0 6.7468748,10.983611 2.1118414,2.1118414 0 0 0 8.8583741,8.8721076 2.1118414,2.1118414 0 0 0 8.7167807,8.1119473 2.1118414,2.1118414 0 0 0 10.170955,6.1053515 2.1118414,2.1118414 0 0 0 9.1203735,4.2801398 2.1118414,2.1118414 0 0 0 9.2971069,3.4352303 2.1118414,2.1118414 0 0 0 7.1850912,1.3232145 Z" />
  </g>
</svg>
