<?xml version="1.0" encoding="UTF-8" standalone="no"?>
<svg
   xmlns:dc="http://purl.org/dc/elements/1.1/"
   xmlns:cc="http://creativecommons.org/ns#"
   xmlns:rdf="http://www.w3.org/1999/02/22-rdf-syntax-ns#"
   xmlns:svg="http://www.w3.org/2000/svg"
   xmlns="http://www.w3.org/2000/svg"
   xmlns:xlink="http://www.w3.org/1999/xlink"
   xmlns:sodipodi="http://sodipodi.sourceforge.net/DTD/sodipodi-0.dtd"
   xmlns:inkscape="http://www.inkscape.org/namespaces/inkscape"
   width="50"
   height="50"
   viewBox="0 0 13.229167 13.229167"
   version="1.1"
   id="svg8"
   inkscape:version="1.0.2 (1.0.2+r75+1)"
   sodipodi:docname="fewCloudIcon.svg">
  <defs
     id="defs2">
    <linearGradient
       inkscape:collect="always"
       id="linearGradient839">
      <stop
         style="stop-color:#c3811e;stop-opacity:1"
         offset="0"
         id="stop835" />
      <stop
         style="stop-color:#e99623;stop-opacity:1"
         offset="1"
         id="stop837" />
    </linearGradient>
    <linearGradient
       inkscape:collect="always"
       xlink:href="#linearGradient839"
       id="linearGradient841"
       x1="4.6651788"
       y1="7.8702421"
       x2="4.5926423"
       y2="-3.4895744"
       gradientUnits="userSpaceOnUse"
       gradientTransform="matrix(0.98296242,0,0,0.98296242,3.591753,0.87391539)" />
  </defs>
  <sodipodi:namedview
     id="base"
     pagecolor="#ffffff"
     bordercolor="#666666"
     borderopacity="1.0"
     inkscape:pageopacity="0.0"
     inkscape:pageshadow="2"
     inkscape:zoom="5.45"
     inkscape:cx="22.741845"
     inkscape:cy="34.734493"
     inkscape:document-units="mm"
     inkscape:current-layer="layer1"
     inkscape:document-rotation="0"
     showgrid="false"
     units="px"
     inkscape:window-width="1278"
     inkscape:window-height="950"
     inkscape:window-x="16"
     inkscape:window-y="25"
     inkscape:window-maximized="0"
     inkscape:snap-global="false" />
  <metadata
     id="metadata5">
    <rdf:RDF>
      <cc:Work
         rdf:about="">
        <dc:format>image/svg+xml</dc:format>
        <dc:type
           rdf:resource="http://purl.org/dc/dcmitype/StillImage" />
        <dc:title></dc:title>
      </cc:Work>
    </rdf:RDF>
  </metadata>
  <g
     inkscape:label="Layer 1"
     inkscape:groupmode="layer"
     id="layer1">
    <circle
       style="fill:url(#linearGradient841);fill-opacity:1;stroke-width:0.182052"
       id="path833"
       cx="8.1430731"
       cy="5.4252367"
       r="4.551321" />
    <path
       id="path1059-0"
       style="fill:#cccccc;fill-opacity:1;stroke-width:0.259352"
       d="m 22.525628,9.5522758 a 2.1118414,2.0291659 0 0 0 -2.111499,2.0288372 2.1118414,2.0291659 0 0 0 1.271757,1.861505 2.1118414,2.0291659 0 0 0 -0.0093,0.190669 2.1118414,2.0291659 0 0 0 0.077,0.544201 2.1118414,2.0291659 0 0 0 -0.950848,1.695166 2.1118414,2.0291659 0 0 0 2.112016,2.028837 2.1118414,2.0291659 0 0 0 2.1115,-2.028837 2.1118414,2.0291659 0 0 0 -0.07751,-0.544201 2.1118414,2.0291659 0 0 0 0.951363,-1.695166 2.1118414,2.0291659 0 0 0 -0.07648,-0.539236 2.1118414,2.0291659 0 0 0 0.513147,-1.326242 2.1118414,2.0291659 0 0 0 -2.112016,-2.0288365 2.1118414,2.0291659 0 0 0 -0.629936,0.092355 2.1118414,2.0291659 0 0 0 -1.069187,-0.2790519 z" />
    <path
       id="path1059-0-9"
       style="fill:#9b9b9b;fill-opacity:1;stroke-width:0.264583"
       d="m 19.348175,-7.6337833 a 2.1118414,2.1118414 0 0 0 -2.111499,2.1120158 2.1118414,2.1118414 0 0 0 1.271757,1.9373495 2.1118414,2.1118414 0 0 0 -0.0093,0.1984375 2.1118414,2.1118414 0 0 0 0.07751,0.5658567 2.1118414,2.1118414 0 0 0 -0.951363,1.7642334 2.1118414,2.1118414 0 0 0 2.112016,2.1120165 2.1118414,2.1118414 0 0 0 2.111499,-2.1120165 2.1118414,2.1118414 0 0 0 -0.077,-0.5658569 2.1118414,2.1118414 0 0 0 0.950845,-1.7642332 2.1118414,2.1118414 0 0 0 -0.07648,-0.5622396 2.1118414,2.1118414 0 0 0 0.513147,-1.379244 2.1118414,2.1118414 0 0 0 -2.112015,-2.1120158 2.1118414,2.1118414 0 0 0 -0.629935,0.096635 2.1118414,2.1118414 0 0 0 -1.069186,-0.2909382 z" />
    <ellipse
       style="fill:#9b9b9b;fill-opacity:1;stroke-width:0.245799"
       id="path1253"
       cx="25.060667"
       cy="0.83735245"
       rx="2.2329576"
       ry="1.5293511" />
    <ellipse
       style="fill:#9b9b9b;fill-opacity:1;stroke-width:0.264583"
       id="path1255"
       cx="26.346786"
       cy="3.168035"
       rx="1.9655712"
       ry="1.2863172" />
    <path
       id="path1059-7"
       style="fill:#cccccc;fill-opacity:1;stroke-width:0.253061"
       d="M 9.3455104,3.9658178 A 2.7468316,1.4853153 0 0 0 7.2685811,4.4790153 2.7468316,1.4853153 0 0 0 7.1993497,4.4782909 2.7468316,1.4853153 0 0 0 6.0163737,4.6229458 2.7468316,1.4853153 0 0 0 5.0968787,4.5371705 2.7468316,1.4853153 0 0 0 2.6321216,5.3673002 2.7468316,1.4853153 0 0 0 5.8333332e-8,6.8509208 2.7468316,1.4853153 0 0 0 0.57602861,7.7606471 2.7468316,1.4853153 0 0 0 0.34749934,8.3538045 2.7468316,1.4853153 0 0 0 2.1797677,9.7538313 2.7468316,1.4853153 0 0 0 4.9261537,11.204741 2.7468316,1.4853153 0 0 0 7.250433,10.51018 2.7468316,1.4853153 0 0 0 8.7755308,10.760237 2.7468316,1.4853153 0 0 0 11.521918,9.2751587 2.7468316,1.4853153 0 0 0 11.33775,8.7405175 2.7468316,1.4853153 0 0 0 13.229167,7.3292243 2.7468316,1.4853153 0 0 0 11.862695,6.0455035 2.7468316,1.4853153 0 0 0 12.092569,5.4512557 2.7468316,1.4853153 0 0 0 9.3455104,3.9658178 Z" />
  </g>
</svg>
