<?xml version="1.0" encoding="UTF-8" standalone="no"?>
<svg
   xmlns:dc="http://purl.org/dc/elements/1.1/"
   xmlns:cc="http://creativecommons.org/ns#"
   xmlns:rdf="http://www.w3.org/1999/02/22-rdf-syntax-ns#"
   xmlns:svg="http://www.w3.org/2000/svg"
   xmlns="http://www.w3.org/2000/svg"
   xmlns:xlink="http://www.w3.org/1999/xlink"
   xmlns:sodipodi="http://sodipodi.sourceforge.net/DTD/sodipodi-0.dtd"
   xmlns:inkscape="http://www.inkscape.org/namespaces/inkscape"
   width="50"
   height="50"
   viewBox="0 0 13.229167 13.229167"
   version="1.1"
   id="svg8"
   inkscape:version="1.0.2 (1.0.2+r75+1)"
   sodipodi:docname="rainIcon.svg">
  <defs
     id="defs2">
    <linearGradient
       inkscape:collect="always"
       id="linearGradient839">
      <stop
         style="stop-color:#c3811e;stop-opacity:1"
         offset="0"
         id="stop835" />
      <stop
         style="stop-color:#e99623;stop-opacity:1"
         offset="1"
         id="stop837" />
    </linearGradient>
    <linearGradient
       inkscape:collect="always"
       xlink:href="#linearGradient839"
       id="linearGradient841"
       x1="4.6651788"
       y1="7.8702421"
       x2="4.5926423"
       y2="-3.4895744"
       gradientUnits="userSpaceOnUse"
       gradientTransform="matrix(0.98296242,0,0,0.98296242,-14.564887,-8.8352121)" />
  </defs>
  <sodipodi:namedview
     id="base"
     pagecolor="#ffffff"
     bordercolor="#666666"
     borderopacity="1.0"
     inkscape:pageopacity="0.0"
     inkscape:pageshadow="2"
     inkscape:zoom="5.45"
     inkscape:cx="11.057575"
     inkscape:cy="38.171125"
     inkscape:document-units="mm"
     inkscape:current-layer="layer1"
     inkscape:document-rotation="0"
     showgrid="false"
     units="px"
     inkscape:window-width="1278"
     inkscape:window-height="950"
     inkscape:window-x="16"
     inkscape:window-y="25"
     inkscape:window-maximized="0"
     inkscape:snap-global="false" />
  <metadata
     id="metadata5">
    <rdf:RDF>
      <cc:Work
         rdf:about="">
        <dc:format>image/svg+xml</dc:format>
        <dc:type
           rdf:resource="http://purl.org/dc/dcmitype/StillImage" />
        <dc:title></dc:title>
      </cc:Work>
    </rdf:RDF>
  </metadata>
  <g
     inkscape:label="Layer 1"
     inkscape:groupmode="layer"
     id="layer1">
    <circle
       style="fill:url(#linearGradient841);fill-opacity:1;stroke-width:0.182052"
       id="path833"
       cx="-10.013567"
       cy="-4.2838907"
       r="4.551321" />
    <path
       id="path1059-0"
       style="fill:#cccccc;fill-opacity:1;stroke-width:0.259352"
       d="m 22.525628,9.5522758 a 2.1118414,2.0291659 0 0 0 -2.111499,2.0288372 2.1118414,2.0291659 0 0 0 1.271757,1.861505 2.1118414,2.0291659 0 0 0 -0.0093,0.190669 2.1118414,2.0291659 0 0 0 0.077,0.544201 2.1118414,2.0291659 0 0 0 -0.950848,1.695166 2.1118414,2.0291659 0 0 0 2.112016,2.028837 2.1118414,2.0291659 0 0 0 2.1115,-2.028837 2.1118414,2.0291659 0 0 0 -0.07751,-0.544201 2.1118414,2.0291659 0 0 0 0.951363,-1.695166 2.1118414,2.0291659 0 0 0 -0.07648,-0.539236 2.1118414,2.0291659 0 0 0 0.513147,-1.326242 2.1118414,2.0291659 0 0 0 -2.112016,-2.0288365 2.1118414,2.0291659 0 0 0 -0.629936,0.092355 2.1118414,2.0291659 0 0 0 -1.069187,-0.2790519 z" />
    <path
       id="path1059-0-9"
       style="fill:#9b9b9b;fill-opacity:1;stroke-width:0.264583"
       d="m 19.348175,-7.6337833 a 2.1118414,2.1118414 0 0 0 -2.111499,2.1120158 2.1118414,2.1118414 0 0 0 1.271757,1.9373495 2.1118414,2.1118414 0 0 0 -0.0093,0.1984375 2.1118414,2.1118414 0 0 0 0.07751,0.5658567 2.1118414,2.1118414 0 0 0 -0.951363,1.7642334 2.1118414,2.1118414 0 0 0 2.112016,2.1120165 2.1118414,2.1118414 0 0 0 2.111499,-2.1120165 2.1118414,2.1118414 0 0 0 -0.077,-0.5658569 2.1118414,2.1118414 0 0 0 0.950845,-1.7642332 2.1118414,2.1118414 0 0 0 -0.07648,-0.5622396 2.1118414,2.1118414 0 0 0 0.513147,-1.379244 2.1118414,2.1118414 0 0 0 -2.112015,-2.1120158 2.1118414,2.1118414 0 0 0 -0.629935,0.096635 2.1118414,2.1118414 0 0 0 -1.069186,-0.2909382 z" />
    <ellipse
       style="fill:#9b9b9b;fill-opacity:1;stroke-width:0.245799"
       id="path1253"
       cx="25.060667"
       cy="0.83735245"
       rx="2.2329576"
       ry="1.5293511" />
    <ellipse
       style="fill:#9b9b9b;fill-opacity:1;stroke-width:0.264583"
       id="path1255"
       cx="26.346786"
       cy="3.168035"
       rx="1.9655712"
       ry="1.2863172" />
    <path
       id="path1059-7"
       style="fill:#cccccc;fill-opacity:1;stroke-width:0.253061"
       d="m -8.81113,-5.7433097 a 2.7468316,1.4853153 0 0 0 -2.076929,0.5131975 2.7468316,1.4853153 0 0 0 -0.06923,-7.244e-4 2.7468316,1.4853153 0 0 0 -1.182976,0.1446549 2.7468316,1.4853153 0 0 0 -0.919495,-0.085775 2.7468316,1.4853153 0 0 0 -2.464757,0.8301297 2.7468316,1.4853153 0 0 0 -2.632121,1.4836206 2.7468316,1.4853153 0 0 0 0.576028,0.9097263 2.7468316,1.4853153 0 0 0 -0.228529,0.5931574 2.7468316,1.4853153 0 0 0 1.832268,1.4000268 2.7468316,1.4853153 0 0 0 2.746386,1.4509097 2.7468316,1.4853153 0 0 0 2.32428,-0.694561 2.7468316,1.4853153 0 0 0 1.5250974,0.250057 2.7468316,1.4853153 0 0 0 2.7463872,-1.4850783 2.7468316,1.4853153 0 0 0 -0.184168,-0.5346412 2.7468316,1.4853153 0 0 0 1.891417,-1.4112932 2.7468316,1.4853153 0 0 0 -1.366472,-1.2837208 2.7468316,1.4853153 0 0 0 0.229874,-0.5942478 2.7468316,1.4853153 0 0 0 -2.7470586,-1.4854379 z" />
    <g
       id="g1505"
       transform="translate(-0.54749505,-0.28185621)">
      <ellipse
         style="fill:#9b9b9b;fill-opacity:1;stroke-width:0.306821"
         id="path1356"
         cx="3.1377463"
         cy="4.738102"
         rx="2.5902512"
         ry="2.701915" />
      <ellipse
         style="fill:#9b9b9b;fill-opacity:1;stroke-width:0.306821"
         id="path1358"
         cx="4.9948754"
         cy="3.4156218"
         rx="2.3642948"
         ry="2.3359082" />
      <ellipse
         style="fill:#9b9b9b;fill-opacity:1;stroke-width:0.306821"
         id="path1360"
         cx="6.5707979"
         cy="5.3013496"
         rx="2.0830865"
         ry="1.4636068" />
      <ellipse
         style="fill:#9b9b9b;fill-opacity:1;stroke-width:0.306821"
         id="path1362"
         cx="8.7660379"
         cy="3.697036"
         rx="3.03969"
         ry="2.2236781" />
      <ellipse
         style="fill:#9b9b9b;fill-opacity:1;stroke-width:0.306821"
         id="path1364"
         cx="11.046219"
         cy="4.4851637"
         rx="2.7304428"
         ry="2.2797928" />
      <path
         style="fill:#9b9b9b;fill-opacity:1;stroke:#2616a5;stroke-width:0.307305;stroke-linecap:round;stroke-linejoin:miter;stroke-miterlimit:4;stroke-dasharray:none;stroke-opacity:1"
         d="M 5.1331035,7.4731827 C 4.3852768,10.166558 4.3852768,10.166558 4.3852768,10.166558"
         id="path1386" />
      <path
         style="fill:#9b9b9b;fill-opacity:1;stroke:#2616a5;stroke-width:0.307305;stroke-linecap:round;stroke-linejoin:miter;stroke-miterlimit:4;stroke-dasharray:none;stroke-opacity:1"
         d="M 6.9245091,7.2186495 C 6.1766825,9.9120252 6.1766825,9.9120252 6.1766825,9.9120252"
         id="path1386-1" />
      <path
         style="fill:#9b9b9b;fill-opacity:1;stroke:#2616a5;stroke-width:0.307305;stroke-linecap:round;stroke-linejoin:miter;stroke-miterlimit:4;stroke-dasharray:none;stroke-opacity:1"
         d="M 8.7159147,6.6812754 C 7.9680879,9.3746511 7.9680879,9.3746511 7.9680879,9.3746511"
         id="path1386-2" />
      <path
         style="fill:#9b9b9b;fill-opacity:1;stroke:#2616a5;stroke-width:0.307305;stroke-linecap:round;stroke-linejoin:miter;stroke-miterlimit:4;stroke-dasharray:none;stroke-opacity:1"
         d="M 7.1834431,9.5874789 C 6.4356165,12.280855 6.4356165,12.280855 6.4356165,12.280855"
         id="path1386-9" />
      <path
         style="fill:#9b9b9b;fill-opacity:1;stroke:#2616a5;stroke-width:0.307305;stroke-linecap:round;stroke-linejoin:miter;stroke-miterlimit:4;stroke-dasharray:none;stroke-opacity:1"
         d="M 5.3920377,9.826329 C 4.6442111,12.519705 4.6442111,12.519705 4.6442111,12.519705"
         id="path1386-3" />
      <path
         style="fill:#9b9b9b;fill-opacity:1;stroke:#2616a5;stroke-width:0.307305;stroke-linecap:round;stroke-linejoin:miter;stroke-miterlimit:4;stroke-dasharray:none;stroke-opacity:1"
         d="M 3.6006319,9.8661374 C 2.8528053,12.559513 2.8528053,12.559513 2.8528053,12.559513"
         id="path1386-19" />
      <path
         style="fill:#9b9b9b;fill-opacity:1;stroke:#2616a5;stroke-width:0.307305;stroke-linecap:round;stroke-linejoin:miter;stroke-miterlimit:4;stroke-dasharray:none;stroke-opacity:1"
         d="M 3.3416977,7.855557 C 2.5938711,10.548933 2.5938711,10.548933 2.5938711,10.548933"
         id="path1386-4" />
      <path
         style="fill:#9b9b9b;fill-opacity:1;stroke:#2616a5;stroke-width:0.307305;stroke-linecap:round;stroke-linejoin:miter;stroke-miterlimit:4;stroke-dasharray:none;stroke-opacity:1"
         d="M 10.50732,7.1788021 C 9.7594935,9.8721779 9.7594935,9.8721779 9.7594935,9.8721779"
         id="path1386-7" />
      <path
         style="fill:#9b9b9b;fill-opacity:1;stroke:#2616a5;stroke-width:0.307305;stroke-linecap:round;stroke-linejoin:miter;stroke-miterlimit:4;stroke-dasharray:none;stroke-opacity:1"
         d="M 12.298726,7.0796032 C 11.5509,9.772979 11.5509,9.772979 11.5509,9.772979"
         id="path1386-8" />
      <path
         style="fill:#9b9b9b;fill-opacity:1;stroke:#2616a5;stroke-width:0.307305;stroke-linecap:round;stroke-linejoin:miter;stroke-miterlimit:4;stroke-dasharray:none;stroke-opacity:1"
         d="M 8.9748492,9.0301619 C 8.2270226,11.723538 8.2270226,11.723538 8.2270226,11.723538"
         id="path1386-45" />
      <path
         style="fill:#9b9b9b;fill-opacity:1;stroke:#2616a5;stroke-width:0.307305;stroke-linecap:round;stroke-linejoin:miter;stroke-miterlimit:4;stroke-dasharray:none;stroke-opacity:1"
         d="m 10.766255,9.308897 c -0.747827,2.693376 -0.747827,2.693376 -0.747827,2.693376"
         id="path1386-0" />
    </g>
  </g>
</svg>
